<svg xmlns="http://www.w3.org/2000/svg" width="40" height="40" viewBox="0 0 40 40" fill="none"><rect width="40" height="40" rx="6" fill="#FFEAEA"></rect><path d="M31.0198 23.7308C30.8012 23.3658 29.9055 22.2811 27.559 23.6477L23.4838 26.0213C23.3158 26.1191 23.1454 26.1928 22.9693 26.243C23.0283 26.1304 23.0745 26.0115 23.107 25.8886C23.3215 25.0881 22.8464 24.2526 22.0255 23.9865C22.0081 23.9808 21.9904 23.9764 21.9723 23.9731C20.8048 23.7625 19.6508 23.3453 18.7235 23.0101C18.4004 22.8933 18.0953 22.783 17.8355 22.6988C16.7755 22.3549 15.8213 22.7781 15.0278 23.2376L12.0349 24.9704L11.7713 24.5046C11.6392 24.2712 11.4236 24.1031 11.1641 24.0312C10.9047 23.9593 10.6332 23.9924 10.3999 24.1245L9.25652 24.7716C8.77364 25.0449 8.60317 25.66 8.87642 26.1429L12.238 32.0826C12.3701 32.3159 12.5857 32.4841 12.8452 32.556C12.9349 32.5809 13.0261 32.5931 13.1166 32.5931C13.2878 32.5931 13.4567 32.5491 13.6094 32.4627L14.7528 31.8156C15.2357 31.5423 15.4062 30.9271 15.1329 30.4442L14.8081 29.8704L15.4449 29.5027L20.6466 30.8965C20.9385 30.9747 21.2289 31.0136 21.5146 31.0136C22.0923 31.0136 22.6506 30.8545 23.1608 30.5404L30.5564 25.9865C31.2501 25.5593 31.471 24.4842 31.0198 23.7308ZM14.3526 31.1084L13.2091 31.7556C13.1492 31.7896 13.0913 31.781 13.0621 31.773C13.033 31.7649 12.979 31.7424 12.9451 31.6824L9.5835 25.7428C9.53175 25.6513 9.56532 25.5304 9.65668 25.4787L10.8001 24.8316C10.8286 24.8154 10.8608 24.8069 10.8937 24.807C10.9155 24.807 10.9341 24.8106 10.9471 24.8142C10.9762 24.8223 11.0302 24.8448 11.0641 24.9048L14.4257 30.8444C14.4775 30.9358 14.4439 31.0568 14.3526 31.1084ZM21.3005 27.0075L21.8074 27.0899C22.5759 27.2128 23.258 27.0929 23.8926 26.7234L27.9679 24.3498C29.1171 23.6804 29.9974 23.6051 30.3228 24.1483C30.5455 24.5202 30.4484 25.0987 30.1302 25.2946L22.7347 29.8485C22.1591 30.2028 21.5274 30.2914 20.8568 30.1117L15.4926 28.6744C15.3885 28.6465 15.2776 28.6611 15.1843 28.7149L14.4079 29.1632L12.4351 25.6775L15.4349 23.9407C16.1056 23.5524 16.8302 23.2266 17.5847 23.4715C17.8318 23.5516 18.117 23.6547 18.4472 23.7741C19.3956 24.117 20.5739 24.543 21.7984 24.7672C22.1998 24.9092 22.4244 25.2966 22.3221 25.6782C22.1874 26.1808 21.7658 26.243 21.4296 26.2047C20.8322 26.0817 20.2635 25.9194 19.6617 25.7476C19.3754 25.6658 19.0793 25.5812 18.7748 25.4996C18.7232 25.4858 18.6695 25.4823 18.6166 25.4892C18.5637 25.4962 18.5127 25.5135 18.4665 25.5402C18.4203 25.5669 18.3798 25.6024 18.3473 25.6447C18.3148 25.687 18.291 25.7353 18.2772 25.7869C18.2634 25.8384 18.2599 25.8922 18.2668 25.9451C18.2738 25.9979 18.2911 26.049 18.3178 26.0952C18.3445 26.1414 18.38 26.1819 18.4223 26.2143C18.4646 26.2468 18.5129 26.2706 18.5645 26.2844C18.8626 26.3643 19.1554 26.448 19.4386 26.5288C20.0616 26.7067 20.6499 26.8747 21.2843 27.0044M11.1099 25.9399C11.1176 25.9929 11.1149 26.047 11.1017 26.099C11.0886 26.1509 11.0654 26.1998 11.0333 26.2428C11.0013 26.2858 10.9611 26.3221 10.9151 26.3495C10.869 26.377 10.818 26.3951 10.765 26.4029C10.7119 26.4106 10.6579 26.4078 10.6059 26.3947C10.5539 26.3816 10.505 26.3583 10.462 26.3263C10.4191 26.2943 10.3828 26.2541 10.3553 26.208C10.3279 26.162 10.3097 26.111 10.302 26.0579C10.2882 25.9517 10.3167 25.8442 10.3814 25.7588C10.4461 25.6734 10.5418 25.6168 10.6478 25.6013C10.7539 25.5858 10.8618 25.6126 10.9482 25.676C11.0346 25.7393 11.0927 25.8341 11.1099 25.9399ZM17.102 13.7513C17.2899 14.1179 17.3843 14.3018 17.4112 14.4547C17.4382 14.6076 17.4124 14.8127 17.3613 15.2214C17.3484 15.3243 17.334 15.4388 17.3186 15.5675C17.234 16.2752 17.6174 16.9393 18.2726 17.2199C18.3918 17.271 18.4981 17.3158 18.5936 17.356L18.6441 17.3774L17.1342 20.6204C17.1028 20.6878 17.0905 20.7624 17.0986 20.8362C17.1067 20.91 17.1349 20.9801 17.18 21.039C17.2252 21.098 17.2857 21.1434 17.3548 21.1704C17.424 21.1974 17.4992 21.2049 17.5724 21.1921L19.232 20.9021L20.0785 22.3588C20.1158 22.423 20.17 22.4758 20.2352 22.5114C20.3003 22.5469 20.374 22.564 20.4482 22.5606C20.5224 22.5572 20.5942 22.5336 20.6559 22.4923C20.7176 22.4509 20.7667 22.3935 20.7981 22.3262L22.297 19.1067L22.2674 19.0929C22.524 19.0153 22.6755 18.9762 22.7996 18.9762C22.9549 18.9762 23.1525 19.0372 23.546 19.1587L23.6764 19.1988L24.7582 21.7103C24.7875 21.7785 24.835 21.8373 24.8955 21.8804C24.9559 21.9235 25.0271 21.9492 25.1011 21.9547C25.1751 21.9602 25.2493 21.9454 25.3155 21.9117C25.3816 21.878 25.4373 21.8268 25.4765 21.7637L26.3648 20.3322L28.0153 20.6703C28.0881 20.6852 28.1635 20.6798 28.2334 20.6549C28.3033 20.6299 28.3651 20.5863 28.412 20.5287C28.4588 20.4711 28.489 20.4018 28.4992 20.3282C28.5095 20.2547 28.4993 20.1798 28.47 20.1116L27.2404 17.2568C27.2692 17.2446 27.2979 17.2324 27.3267 17.22C27.9819 16.9394 28.3653 16.2753 28.2807 15.5676C28.2653 15.4389 28.251 15.3244 28.2381 15.2216C28.1868 14.8129 28.1611 14.6078 28.1881 14.4548C28.215 14.3019 28.3094 14.118 28.4973 13.7515C28.5446 13.6592 28.5972 13.5566 28.6557 13.4409C28.9773 12.8048 28.8441 12.0496 28.3244 11.5619C28.2397 11.4824 28.1546 11.4032 28.0694 11.3242C27.7675 11.0441 27.6159 10.9035 27.5382 10.769C27.4606 10.6345 27.4146 10.433 27.323 10.0314C27.3 9.93038 27.2743 9.81785 27.2447 9.69166C27.0822 8.99763 26.4947 8.50475 25.783 8.46519C25.6536 8.45798 25.5384 8.45229 25.4349 8.44711C25.0235 8.42665 24.8171 8.41634 24.6711 8.36322C24.5252 8.31011 24.3604 8.18529 24.0321 7.93656C23.9495 7.874 23.8575 7.80432 23.7538 7.72663C23.1832 7.29946 22.4164 7.29946 21.8457 7.72663C21.742 7.80432 21.65 7.874 21.5674 7.93656C21.2391 8.18529 21.0744 8.31011 20.9284 8.36322C20.7825 8.41634 20.5761 8.42665 20.1646 8.44711C20.0611 8.45229 19.9459 8.45798 19.8165 8.46519C19.1048 8.5048 18.5174 8.99768 18.3548 9.69166C18.3253 9.81785 18.2996 9.93033 18.2765 10.0314C18.1849 10.433 18.139 10.6345 18.0613 10.769C17.9836 10.9035 17.8321 11.0441 17.5302 11.3242C17.4449 11.4032 17.3599 11.4824 17.2751 11.5618C16.7553 12.0496 16.6222 12.8048 16.9437 13.4409C16.9961 13.5446 17.0489 13.648 17.102 13.7513ZM20.39 21.2776L19.7923 20.249C19.7506 20.1772 19.6878 20.1199 19.6125 20.0849C19.5372 20.0498 19.453 20.0387 19.3711 20.053L18.1992 20.2577L19.3576 17.7697C19.4535 17.8765 19.5605 18.042 19.7371 18.3155C19.7933 18.4026 19.8559 18.4995 19.9268 18.608C20.2282 19.0689 20.7267 19.3302 21.2526 19.3302C21.2675 19.3302 21.2825 19.329 21.2974 19.3286L20.39 21.2776ZM26.2504 19.4793C26.169 19.4627 26.0845 19.4714 26.0082 19.5042C25.9319 19.5371 25.8675 19.5925 25.8237 19.6631L25.1965 20.6739L24.6079 19.3074C25.0339 19.2359 25.4216 18.9916 25.6724 18.608C25.7359 18.5107 25.7992 18.4133 25.8621 18.3156C26.0855 17.9696 26.1977 17.7959 26.3166 17.6961C26.363 17.6571 26.4206 17.6211 26.4959 17.5822L27.4158 19.718L26.2504 19.4793ZM17.8309 12.1542C17.9242 12.0667 18.0076 11.9893 18.0826 11.9197C18.8037 11.2508 18.8498 11.171 19.0686 10.212C19.0913 10.1123 19.1166 10.0014 19.1458 9.87686C19.2267 9.53175 19.5076 9.29602 19.8615 9.27632C19.9892 9.26921 20.1028 9.26357 20.205 9.25845C21.1874 9.20954 21.274 9.17801 22.058 8.58402C22.1394 8.52227 22.2302 8.45351 22.3326 8.37688C22.4745 8.27065 22.6371 8.21758 22.7997 8.21758C22.9623 8.21758 23.1249 8.27065 23.2669 8.37688C23.3586 8.44561 23.4501 8.51464 23.5414 8.58397C24.3254 9.17796 24.412 9.20944 25.3944 9.25839C25.4966 9.26347 25.6102 9.26911 25.7379 9.27627C26.0918 9.29597 26.3727 9.5317 26.4536 9.87681C26.4827 10.0013 26.5081 10.1123 26.5308 10.212C26.7496 11.1709 26.7957 11.2507 27.5168 11.9197C27.6009 11.9976 27.6848 12.0757 27.7684 12.1541C28.0269 12.3967 28.0906 12.7579 27.9306 13.0742C27.8729 13.1884 27.821 13.2897 27.7744 13.3806C27.3256 14.2559 27.3096 14.3466 27.4319 15.3226C27.4446 15.424 27.4588 15.5369 27.474 15.6639C27.5161 16.0159 27.3327 16.3334 27.0069 16.473C26.8893 16.5233 26.7844 16.5675 26.6902 16.6073C25.7838 16.9892 25.7132 17.0484 25.1796 17.8748C25.1175 17.9711 25.0551 18.0673 24.9924 18.1632C24.7984 18.4599 24.4539 18.5853 24.1145 18.4828C23.9921 18.4458 23.8833 18.4123 23.7856 18.3821C22.8458 18.0921 22.7537 18.0921 21.8137 18.3821C21.716 18.4123 21.6072 18.4458 21.4848 18.4828C21.1456 18.5853 20.8009 18.4599 20.6069 18.1632C20.5442 18.0672 20.4818 17.9711 20.4197 17.8747C19.8861 17.0484 19.8155 16.9892 18.9091 16.6073C18.8149 16.5675 18.71 16.5234 18.5924 16.473C18.2666 16.3334 18.0832 16.0159 18.1253 15.6638C18.1405 15.5369 18.1547 15.4239 18.1674 15.3225C18.2898 14.3465 18.2738 14.2558 17.8249 13.3805C17.7783 13.2896 17.7264 13.1883 17.6687 13.0742C17.5088 12.7579 17.5725 12.3968 17.8309 12.1542ZM22.7996 17.093C24.8536 17.093 26.5246 15.4219 26.5246 13.3679C26.5246 11.3139 24.8536 9.64291 22.7996 9.64291C20.7456 9.64291 19.0746 11.314 19.0746 13.3679C19.0746 15.4219 20.7456 17.093 22.7996 17.093ZM22.7996 10.4554C24.4055 10.4554 25.7121 11.7619 25.7121 13.3679C25.7121 14.9738 24.4056 16.2804 22.7996 16.2804C21.1936 16.2804 19.8871 14.9739 19.8871 13.3679C19.8871 11.7619 21.1936 10.4554 22.7996 10.4554ZM21.7654 14.8075L20.7199 13.7619C20.6822 13.7242 20.6523 13.6794 20.6319 13.6301C20.6114 13.5809 20.6009 13.528 20.6009 13.4747C20.6009 13.4213 20.6114 13.3685 20.6319 13.3192C20.6523 13.2699 20.6822 13.2252 20.7199 13.1874C20.7576 13.1497 20.8024 13.1198 20.8517 13.0994C20.901 13.079 20.9538 13.0685 21.0072 13.0685C21.0605 13.0685 21.1133 13.079 21.1626 13.0994C21.2119 13.1198 21.2567 13.1497 21.2944 13.1874L22.0662 13.9593L24.319 11.9149C24.3988 11.8425 24.5041 11.8047 24.6117 11.8099C24.7193 11.8151 24.8205 11.8629 24.8929 11.9427C24.9653 12.0225 25.003 12.1278 24.9978 12.2354C24.9926 12.343 24.9448 12.4442 24.865 12.5166L22.3257 14.8211C22.251 14.889 22.1537 14.9266 22.0527 14.9265C21.9994 14.9265 21.9465 14.916 21.8972 14.8956C21.8479 14.8752 21.8031 14.8452 21.7654 14.8075Z" fill="#1A1A2E"></path></svg>